<svg xmlns="http://www.w3.org/2000/svg" width="38.7" height="38.7"><path fill-rule="evenodd" stroke="#2A2A2A" stroke-width="1.8" fill="none" d="M31.372 17.384c.061.499.115 1 .115 1.515 0 .516-.054 1.017-.115 1.517l4.978 4.259-3.724 6.45-6.188-2.186c-.809.608-1.676 1.143-2.619 1.544l-1.196 6.416h-7.448l-1.194-6.416c-.944-.4-1.811-.936-2.62-1.544l-6.188 2.185-3.724-6.45 4.978-4.258a12.433 12.433 0 0 1-.115-1.517c0-.515.054-1.016.115-1.516l-4.978-4.258 3.724-6.45L11.36 8.86c.809-.609 1.677-1.144 2.621-1.545L15.175.899h7.448l1.196 6.416c.943.401 1.811.937 2.62 1.545l6.187-2.186 3.724 6.45-4.978 4.26zM18.9 15.311c-1.995 0-3.612 1.606-3.612 3.589 0 1.982 1.617 3.588 3.612 3.588 1.994 0 3.611-1.606 3.611-3.588 0-1.983-1.617-3.589-3.611-3.589z"/></svg>