<svg xmlns="http://www.w3.org/2000/svg" width="37" height="37"><path fill-rule="evenodd" fill="#2A2A2A" d="M29.89 13.599a6.298 6.298 0 0 1-5.204-2.747l-12.405 6.54c.331.767.518 1.61.518 2.497 0 .735-.15 1.43-.38 2.085l12.104 5.435c1.109-1.81 3.088-3.03 5.367-3.03a6.31 6.31 0 1 1-6.311 6.31c0-.565.099-1.103.238-1.624l-12.226-5.489c-1.147 1.583-2.998 2.623-5.101 2.623a6.31 6.31 0 1 1 0-12.619c1.948 0 3.669.902 4.826 2.29l12.599-6.642c-.2-.615-.336-1.258-.336-1.939a6.31 6.31 0 1 1 6.311 6.31zm.033 21.624a4.5 4.5 0 1 0 0-9 4.5 4.5 0 0 0 0 9zm-23.4-19.8a4.5 4.5 0 1 0 0 9 4.5 4.5 0 0 0 0-9zm23.4-12.6a4.5 4.5 0 1 0 0 9 4.5 4.5 0 0 0 0-9z"/></svg>