<svg xmlns="http://www.w3.org/2000/svg" width="28.812" height="36" viewBox="0 0 28.812 36"><defs><style>.cls-1{fill:#2a2a2a;fill-rule:evenodd}</style></defs><path id="ico-notifications" class="cls-1" d="M86.4 356.4a1.8 1.8 0 0 1-1.8 1.8h-9a3.6 3.6 0 0 1-7.2 0h-9a1.8 1.8 0 0 1-1.8-1.8l.027-5.057 1.773-1.772V342a12.559 12.559 0 0 1 9-12.015v-.585a3.6 3.6 0 0 1 7.2 0v.585a12.559 12.559 0 0 1 9 12.015v7.571l1.773 1.772zM82.8 342a10.8 10.8 0 1 0-21.6 0l-.027 8.656-1.773 1.773v3.971h25.2v-3.971l-1.773-1.773zM72 356.4a1.8 1.8 0 1 1-1.8 1.8 1.8 1.8 0 0 1 1.8-1.8zm-3.6 0h7.2v1.8h-7.2v-1.8zm3.6-28.8a1.8 1.8 0 1 1-1.8 1.8 1.8 1.8 0 0 1 1.8-1.8zm-1.8 1.8h3.6v1.8h-3.6v-1.8z" transform="translate(-57.594 -325.812)"/></svg>