<svg xmlns="http://www.w3.org/2000/svg" width="30" height="37"><path fill-rule="evenodd" fill="#2A2A2A" d="M27.6 33.2h-9a3.6 3.6 0 0 1-7.2 0h-9a1.8 1.8 0 0 1-1.8-1.8l.027-5.057L2.4 24.571V17c0-5.699 3.808-10.458 9-12.015V4.4a3.6 3.6 0 1 1 7.2 0v.585c5.192 1.557 9 6.316 9 12.015v7.571l1.773 1.772.027 5.057a1.8 1.8 0 0 1-1.8 1.8zM15 35a1.8 1.8 0 0 0 1.8-1.8h-3.6A1.8 1.8 0 0 0 15 35zm0-32.4a1.8 1.8 0 0 0-1.8 1.8h3.6A1.8 1.8 0 0 0 15 2.6zm12.6 24.829l-1.773-1.773L25.8 17c0-5.965-4.836-10.8-10.8-10.8C9.035 6.2 4.2 11.035 4.2 17l-.027 8.656L2.4 27.429V31.4h25.2v-3.971z"/></svg>