<svg xmlns="http://www.w3.org/2000/svg" width="37" height="36"><path fill-rule="evenodd" fill="#2A2A2A" d="M.4 36v-7.2a9 9 0 0 1 9-9h3.069c-2.934-1.929-4.874-5.244-4.874-9.014 0-5.959 4.837-10.789 10.804-10.789 5.967 0 10.804 4.83 10.804 10.789 0 3.77-1.939 7.085-4.874 9.014H27.4a9 9 0 0 1 9 9V36H.4zm27.008-25.215c0-4.962-4.033-8.985-9.009-8.985-4.975 0-9.009 4.023-9.009 8.985 0 4.963 4.034 8.986 9.009 8.986 4.976 0 9.009-4.023 9.009-8.986zM34.6 28.8a7.2 7.2 0 0 0-7.2-7.2h-18a7.2 7.2 0 0 0-7.2 7.2v5.4h32.4v-5.4z"/></svg>