<svg xmlns="http://www.w3.org/2000/svg" width="21" height="25"><path fill-rule="evenodd" fill="#2A2A2A" d="M19.134 22.864c-3.099.681-5.274 1.338-8.434 1.338-3.161 0-5.337-.657-8.435-1.338C1.357 22.686.8 21.374.8 20.456V10.28c0-1.273.98-2.304 2.19-2.304h1.392v-.569C4.382 3.758 7.211.8 10.7.8c3.489 0 6.318 2.958 6.318 6.607v.569h1.391c1.21 0 2.19 1.031 2.19 2.304v10.176c0 .918-.558 2.23-1.465 2.408zM15.19 7.65c0-2.795-2.01-5.06-4.49-5.06-2.48 0-4.49 2.265-4.49 5.06v.326h8.98V7.65zm2.63 2.131H3.643c-.58 0-1.05.533-1.05 1.191l.025 9.06c0 .646.339 1.072 1.099 1.207 2.595.516 3.397 1.152 6.973 1.152 3.474 0 4.379-.636 6.974-1.152.76-.135 1.099-.561 1.099-1.207l.025-9.06c0-.658-.434-1.191-.968-1.191zm-6.24 7.073v2.645c0 .597-.394 1.08-.88 1.08s-.88-.483-.88-1.08v-2.645a2.698 2.698 0 0 1 .88-5.254 2.708 2.708 0 0 1 2.708 2.706 2.699 2.699 0 0 1-1.828 2.548z"/></svg>