<svg xmlns="http://www.w3.org/2000/svg" width="36" height="28.782" viewBox="0 0 36 28.782"><defs><style>.cls-1{fill:#2a2a2a;fill-rule:evenodd}</style></defs><path id="ico-messges" class="cls-1" d="M55.8 617.4h32.4a1.8 1.8 0 0 1 1.8 1.8v25.2a1.8 1.8 0 0 1-1.8 1.8H55.8a1.8 1.8 0 0 1-1.8-1.8v-25.2a1.8 1.8 0 0 1 1.8-1.8zm0 1.8h32.4v25.2H55.8v-25.2zm34.2 2.438L72.447 635.4h-.894L54 621.638v-1.87l.447-.567L72 632.962 89.553 619.2l.447.568v1.87zm-.447 22.762l-12-9.4 1.777-1.393L90 641.962v1.87zM66.444 635l-12 9.4-.444-.568v-1.87l10.666-8.362z" transform="translate(-54 -617.406)"/></svg>