<svg xmlns="http://www.w3.org/2000/svg" width="37" height="37"><path fill-rule="evenodd" fill="#FFF" d="M33.579 31.63L5.623 36.533c-1.716.301-3.359-.797-3.671-2.454L.259 25.082c-.312-1.656.826-3.242 2.542-3.543l27.956-4.904c1.716-.301 3.359.798 3.671 2.454l1.693 8.997c.312 1.656-.826 3.243-2.542 3.544zm-6.362-16.181L16.108 7.468a3.571 3.571 0 0 1-1.514.343c-.379 0-.737-.075-1.081-.183L5.564 19.247l-2.791.49 9.059-13.24a3.572 3.572 0 0 1-.843-2.292 3.605 3.605 0 1 1 7.211 0c0 .723-.218 1.393-.584 1.957l12.117 8.846-2.516.441z"/></svg>