<svg xmlns="http://www.w3.org/2000/svg" width="94" height="94"><path fill-rule="evenodd" fill="#FEDC03" d="M47.38 93.937C21.666 93.937.82 73.055.82 47.296.82 21.537 21.666.655 47.38.655c25.714 0 46.56 20.882 46.56 46.641 0 25.759-20.846 46.641-46.56 46.641zm-11.632-69.98H24.081v11.687h11.667V23.957zm0 17.496H24.081V53.14h11.667V41.453zm0 17.496H24.081v11.687h11.667V58.949zm17.465-34.992H41.547v11.687h11.666V23.957zm0 17.496H41.547V53.14h11.666V41.453zm0 17.496H41.547v11.687h11.666V58.949zm17.466-34.992H59.012v11.687h11.667V23.957zm0 17.496H59.012V53.14h11.667V41.453zm0 17.496H59.012v11.687h11.667V58.949z"/></svg>