<svg xmlns="http://www.w3.org/2000/svg" width="31" height="30"><path fill-rule="evenodd" fill="#2A2A2A" d="M29.291 10.741l-9.898 10.286h-.001l-5.613 5.834c-1.467 1.526-3.419 2.366-5.496 2.366-2.076 0-4.028-.84-5.497-2.366l-.101-.105C1.218 25.23.409 23.202.409 21.043c0-2.156.809-4.186 2.276-5.711l13.72-14.261.994 1.035-13.72 14.258c-2.481 2.581-2.481 6.78 0 9.36l.101.104c1.204 1.252 2.803 1.94 4.503 1.94 1.702 0 3.301-.688 4.504-1.94l5.612-5.833 2.564-2.666 5.542-5.76.001.001 1.79-1.861a4.629 4.629 0 0 0 1.289-3.232 4.63 4.63 0 0 0-1.289-3.233l-.072-.076a4.286 4.286 0 0 0-6.219 0l-14.54 15.11-.992-1.033L21.011 2.136a5.655 5.655 0 0 1 8.206 0l.074.076a6.12 6.12 0 0 1 1.7 4.265c0 1.61-.605 3.126-1.7 4.264z"/></svg>