<svg xmlns="http://www.w3.org/2000/svg" width="67" height="56"><path fill-rule="evenodd" fill="#262626" d="M14.244 55.289V43.622c0-6.443 5.213-11.667 11.643-11.667h6.797c-5.198-2.782-8.737-8.267-8.737-14.584 0-9.129 7.385-16.529 16.495-16.529 9.11 0 16.495 7.4 16.495 16.529 0 6.317-3.539 11.802-8.737 14.584h6.797c6.431 0 11.644 5.224 11.644 11.667v11.667H14.244zm38.812-37.918c0-6.981-5.647-12.64-12.614-12.64-6.966 0-12.614 5.659-12.614 12.64 0 6.981 5.648 12.639 12.614 12.639 6.967 0 12.614-5.658 12.614-12.639zm9.703 26.251c0-4.296-3.475-7.778-7.762-7.778h-29.11c-4.287 0-7.762 3.482-7.762 7.778V51.4h44.634v-7.778zM10.362 31.955H6.481v-5.834H.659v-3.889h5.822v-5.833h3.881v5.833h5.822v3.889h-5.822v5.834z"/></svg>