<svg xmlns="http://www.w3.org/2000/svg" width="36" height="37"><path fill-rule="evenodd" fill="#007FE0" d="M36 18.599c0-9.941-8.059-18-18-18s-18 8.059-18 18c0 9.942 8.059 18 18 18 3.627 0 6.998-1.082 9.824-2.928l-.59-1.77A16.113 16.113 0 0 1 18 34.799c-8.947 0-16.2-7.253-16.2-16.2s7.253-16.2 16.2-16.2 16.2 7.253 16.2 16.2c0 5.175-3.415 7.2-7.2 7.2-1.163 0-1.721-.513-2.224-1.277-.502-.764-.753-1.903-.753-3.416v-.655l.473-10.128c-2.125-.597-4.177-.895-6.158-.895-2.786 0-5.043.935-6.773 2.805-1.73 1.87-2.595 4.275-2.595 7.214 0 2.532.581 4.5 1.744 5.904 1.163 1.405 2.807 2.107 4.932 2.107 1.55 0 2.907-.367 4.07-1.102 1.163-.735 2.053-1.83 2.67-3.285h.086c.129 1.353.592 2.423 1.389 3.208.797.786 1.748 1.32 3.139 1.32 4.025 0 9-2.306 9-9zm-22.917-5.188c1.263-1.491 2.965-2.237 5.104-2.237 1.636 0 3.022.197 4.156.589l-.345 6.353c-.258 5.035-2.218 7.552-5.879 7.552-1.708 0-2.957-.524-3.747-1.571-.789-1.048-1.184-2.613-1.184-4.694 0-2.502.632-4.5 1.895-5.992z"/></svg>