<svg xmlns="http://www.w3.org/2000/svg" width="37" height="37"><path fill-rule="evenodd" fill="#2A2A2A" d="M18.594 36.6C8.649 36.6.588 28.541.588 18.599c0-9.941 8.061-18 18.006-18 9.944 0 18.005 8.059 18.005 18 0 9.942-8.061 18.001-18.005 18.001zm-7.438-10.565h3.523V15.469h-3.523v10.566zm1.761-16.789a2.105 2.105 0 0 0-2.114 2.113c0 1.175.94 2.114 2.114 2.114a2.105 2.105 0 0 0 2.114-2.114 2.104 2.104 0 0 0-2.114-2.113zm14.681 10.097c0-2.231-1.88-4.109-4.111-4.109-1.057 0-2.349.704-2.936 1.644v-1.409h-3.523v10.566h3.523v-6.222c0-.94.822-1.761 1.762-1.761.939 0 1.761.821 1.761 1.761v6.222h3.524v-6.692z"/></svg>