<svg xmlns="http://www.w3.org/2000/svg" width="37" height="37"><path fill-rule="evenodd" fill="#FFF" d="M35.151 35.74c-2.219.438-2.988.861-5.251.861-2.263 0-3.033-.423-5.251-.861-.65-.115-1.06-.397-1.06-.988l.011-6.129c0-.565.521-1.024 1.165-1.024h.635V26.7a4.5 4.5 0 1 1 9 0v.899h.54c.696 0 1.26.459 1.26 1.024l.011 6.129c0 .591-.411.873-1.06.988zM32.6 26.7a2.7 2.7 0 0 0-5.4 0v.899h5.4V26.7zm-10.8-6.278c-3.965 0-7.18-3.229-7.18-7.212 0-3.983 3.215-7.212 7.18-7.212s7.179 3.229 7.179 7.212c0 3.983-3.214 7.212-7.179 7.212zm-8.975-7.209c0 .513.053 1.013.135 1.502-.627.18-1.276.307-1.96.307-3.965 0-7.18-3.229-7.18-7.212C3.82 3.827 7.035.598 11 .598c3.049 0 5.638 1.918 6.679 4.612a9.011 9.011 0 0 0-4.854 8.003zm.738 3.577a9.024 9.024 0 0 0 2.841 3.596H16.2c-2.979 0-6.342 3.33-6.908 7.214H2.6c-1.326 0-2.4-1.21-2.4-2.703v-1.866c.008-3.253 3.206-6.241 6-6.241h7.363zM17 22.19h8.512a6.26 6.26 0 0 0-1.869 4.086A3.583 3.583 0 0 0 21.8 29.4V33h-8.4c-1.326 0-2.4-1.21-2.4-2.703v-1.866c.008-3.253 3.206-6.241 6-6.241z"/></svg>