<svg xmlns="http://www.w3.org/2000/svg" width="28.812" height="36" viewBox="0 0 28.812 36"><defs><style>.cls-1{fill:#2a2a2a;fill-rule:evenodd}</style></defs><path id="ico-files" class="cls-1" d="M86.4 936a1.8 1.8 0 0 1-1.8 1.8H59.4a1.8 1.8 0 0 1-1.8-1.8v-32.4a1.8 1.8 0 0 1 1.8-1.8l18.909.014 8.077 8.076zm-10.8-32.4H59.4V936h25.2v-23.4h-9v-9zm1.8 0l7.2 7.2h-7.2v-7.2zm-14.4 27h18v1.8H63v-1.8zm0-5.4h18v1.8H63v-1.8zm0-5.4h18v1.8H63v-1.8zm0-5.4h18v1.8H63v-1.8zm0-5.4h9v1.8h-9V909z" transform="translate(-57.594 -901.812)"/></svg>