<svg xmlns="http://www.w3.org/2000/svg" width="37" height="37"><path fill-rule="evenodd" fill="#2A2A2A" d="M18.607 36.6C8.663 36.6.601 28.541.601 18.6c0-9.942 8.062-18 18.006-18s18.006 8.058 18.006 18c0 9.941-8.062 18-18.006 18zm8.23-24.721c-.643.264-1.285.661-2.184.793-1.927-2.512-6.809-.529-5.91 3.172-3.34-.264-5.395-1.85-7.065-3.701-.9 1.586-.129 4.098 1.027 4.759-.513 0-1.027-.132-1.413-.397.129 2.115 1.156 3.041 2.698 3.57-.385 0-.899.132-1.413 0 .514 1.454 1.541 2.379 3.212 2.511-1.157 1.058-3.341 1.719-5.011 1.454 1.542.925 3.212 1.719 5.524 1.586 5.653-.264 9.379-4.494 9.507-10.575.642-.528 1.285-1.057 1.413-1.718-.514.264-1.156.396-1.798.529.642-.529 1.156-1.058 1.413-1.983z"/></svg>