<svg xmlns="http://www.w3.org/2000/svg" width="36" height="37"><path fill-rule="evenodd" fill="#2A2A2A" d="M36 18.8c0-9.941-8.059-18-18-18S0 8.859 0 18.8s8.059 18 18 18c3.627 0 6.998-1.083 9.824-2.929l-.59-1.77A16.114 16.114 0 0 1 18 35C9.053 35 1.8 27.747 1.8 18.8S9.053 2.6 18 2.6s16.2 7.253 16.2 16.2c0 5.175-3.415 7.2-7.2 7.2-1.163 0-1.721-.514-2.224-1.278-.502-.764-.753-1.902-.753-3.416v-.655l.473-10.128c-2.125-.596-4.177-.895-6.158-.895-2.786 0-5.043.935-6.773 2.805-1.73 1.87-2.595 4.275-2.595 7.214 0 2.532.581 4.501 1.744 5.905s2.807 2.106 4.932 2.106c1.55 0 2.907-.367 4.07-1.102 1.163-.735 2.053-1.83 2.67-3.285h.086c.129 1.353.592 2.423 1.389 3.209.797.785 1.749 1.32 3.139 1.32 4.025 0 9-2.307 9-9zm-22.917-5.188c1.263-1.492 2.965-2.238 5.104-2.238 1.636 0 3.022.197 4.156.59l-.345 6.352c-.258 5.035-2.218 7.552-5.878 7.552-1.709 0-2.958-.524-3.747-1.571-.79-1.048-1.185-2.612-1.185-4.693 0-2.503.632-4.5 1.895-5.992z"/></svg>