<svg xmlns="http://www.w3.org/2000/svg" width="44" height="48"><path fill-rule="evenodd" fill="#262626" d="M43.237 42.47c0 1.559-1.113 2.305-2.874 2.607-6.012 1.157-12.367 2.272-18.5 2.272-6.134 0-12.489-1.115-18.501-2.272C1.601 44.775.488 44.029.488 42.47l.028-18.46c0-3.221 2.606-5.833 5.821-5.833v-1.945C6.337 7.641 13.288.676 21.862.676c8.575 0 15.525 6.965 15.525 15.556v1.945a5.827 5.827 0 0 1 5.822 5.833l.028 18.46zM31.566 16.232c0-5.369-4.345-9.722-9.704-9.722-5.358 0-9.703 4.353-9.703 9.722v1.945h19.407v-1.945z"/></svg>