<svg xmlns="http://www.w3.org/2000/svg" width="30" height="30"><path fill-rule="evenodd" fill="#2A2A2A" d="M14.8 29.202C6.859 29.202.398 22.741.398 14.8.398 6.859 6.859.398 14.8.398c7.941 0 14.402 6.461 14.402 14.402 0 7.941-6.461 14.402-14.402 14.402zm0-27.489c-7.217 0-13.087 5.87-13.087 13.087S7.583 27.887 14.8 27.887s13.087-5.87 13.087-13.087S22.017 1.713 14.8 1.713zm5.657 12.058a1.543 1.543 0 1 1 1.544-1.543c0 .852-.691 1.543-1.544 1.543zm-1.631 6.373c-.786 1.285-2.323 2.083-4.012 2.083-1.688 0-3.224-.798-4.01-2.083a.808.808 0 1 1 1.38-.844c.485.797 1.519 1.312 2.63 1.312 1.113 0 2.147-.515 2.633-1.312a.812.812 0 0 1 1.112-.267.807.807 0 0 1 .267 1.111zm-9.684-6.373a1.543 1.543 0 1 1 0-3.086 1.543 1.543 0 0 1 0 3.086z"/></svg>