<svg xmlns="http://www.w3.org/2000/svg" width="19.782" height="23.376" viewBox="0 0 19.782 23.376"><defs><style>.cls-1{fill:#2a2a2a;fill-rule:evenodd}</style></defs><path id="ico-private" class="cls-1" d="M326.7 413.8a6.468 6.468 0 0 1 6.318 6.607v6.607a6.324 6.324 0 1 1-12.636 0v-6.607a6.468 6.468 0 0 1 6.318-6.607zm0 1.79a4.8 4.8 0 0 1 4.49 5.06v6.071a4.522 4.522 0 1 1-8.98 0v-6.071a4.8 4.8 0 0 1 4.49-5.06zm9.9 17.866c0 .918-.558 2.23-1.465 2.408-3.1.681-5.274 1.338-8.434 1.338s-5.337-.657-8.435-1.338c-.908-.178-1.465-1.49-1.465-2.408V423.28a2.249 2.249 0 0 1 2.19-2.3h15.419a2.249 2.249 0 0 1 2.19 2.3v10.176zm-1.836-.424a1.148 1.148 0 0 1-1.1 1.207c-2.595.516-3.5 1.152-6.974 1.152-3.576 0-4.378-.636-6.973-1.152a1.148 1.148 0 0 1-1.1-1.207l-.025-9.06a1.127 1.127 0 0 1 1.05-1.191h14.178a1.1 1.1 0 0 1 .968 1.191zm-8.063-4.853a1 1 0 0 1 .88 1.08v3.24a.9.9 0 1 1-1.76 0v-3.24a1 1 0 0 1 .879-1.08zm0-3.579a2.707 2.707 0 1 1-2.708 2.706 2.708 2.708 0 0 1 2.707-2.706z" transform="translate(-316.812 -413.812)"/></svg>