<svg
 xmlns="http://www.w3.org/2000/svg"
 xmlns:xlink="http://www.w3.org/1999/xlink"
 width="67px" height="56px">
<path fill-rule="evenodd"  fill="rgb(38, 38, 38)"
 d="M14.244,55.289 L14.244,43.622 C14.244,37.179 19.457,31.955 25.887,31.955 L32.684,31.955 C27.486,29.173 23.947,23.688 23.947,17.371 C23.947,8.242 31.332,0.842 40.442,0.842 C49.552,0.842 56.937,8.242 56.937,17.371 C56.937,23.688 53.398,29.173 48.200,31.955 L54.997,31.955 C61.428,31.955 66.641,37.179 66.641,43.622 L66.641,55.289 L14.244,55.289 ZM53.056,17.371 C53.056,10.390 47.409,4.731 40.442,4.731 C33.476,4.731 27.828,10.390 27.828,17.371 C27.828,24.352 33.476,30.010 40.442,30.010 C47.409,30.010 53.056,24.352 53.056,17.371 ZM62.759,43.622 C62.759,39.326 59.284,35.844 54.997,35.844 L25.887,35.844 C21.600,35.844 18.125,39.326 18.125,43.622 L18.125,51.400 L62.759,51.400 L62.759,43.622 ZM10.362,31.955 L6.481,31.955 L6.481,26.121 L0.659,26.121 L0.659,22.232 L6.481,22.232 L6.481,16.399 L10.362,16.399 L10.362,22.232 L16.184,22.232 L16.184,26.121 L10.362,26.121 L10.362,31.955 Z"/>
</svg>
