<svg
 xmlns="http://www.w3.org/2000/svg"
 xmlns:xlink="http://www.w3.org/1999/xlink"
 width="57px" height="58px">
<path fill-rule="evenodd"  fill="rgb(38, 38, 38)"
 d="M33.494,47.511 C28.079,47.511 23.108,45.643 19.153,42.537 L4.488,57.231 L0.505,53.241 L15.171,38.546 C12.071,34.583 10.206,29.603 10.206,24.177 C10.206,11.290 20.632,0.842 33.494,0.842 C46.355,0.842 56.781,11.290 56.781,24.177 C56.781,37.064 46.355,47.511 33.494,47.511 ZM33.494,6.676 C23.848,6.676 16.028,14.511 16.028,24.177 C16.028,33.842 23.848,41.678 33.494,41.678 C43.140,41.678 50.959,33.842 50.959,24.177 C50.959,14.511 43.140,6.676 33.494,6.676 Z"/>
</svg>
