<svg
 xmlns="http://www.w3.org/2000/svg"
 xmlns:xlink="http://www.w3.org/1999/xlink"
 width="36px" height="37px">
<path fill-rule="evenodd"  fill="rgb(0, 127, 224)"
 d="M36.000,18.599 C36.000,8.658 27.941,0.599 18.000,0.599 C8.059,0.599 -0.000,8.658 -0.000,18.599 C-0.000,28.541 8.059,36.599 18.000,36.599 C21.627,36.599 24.998,35.517 27.824,33.671 L27.234,31.901 C24.613,33.724 21.434,34.799 18.000,34.799 C9.053,34.799 1.800,27.546 1.800,18.599 C1.800,9.652 9.053,2.399 18.000,2.399 C26.947,2.399 34.200,9.652 34.200,18.599 C34.200,23.774 30.785,25.799 27.000,25.799 C25.837,25.799 25.279,25.286 24.776,24.522 C24.274,23.758 24.023,22.619 24.023,21.106 L24.023,20.451 L24.496,10.323 C22.371,9.726 20.319,9.428 18.338,9.428 C15.552,9.428 13.295,10.363 11.565,12.233 C9.835,14.103 8.970,16.508 8.970,19.447 C8.970,21.979 9.551,23.947 10.714,25.351 C11.877,26.756 13.521,27.458 15.646,27.458 C17.196,27.458 18.553,27.091 19.716,26.356 C20.879,25.621 21.769,24.526 22.386,23.071 L22.472,23.071 C22.601,24.424 23.064,25.494 23.861,26.279 C24.658,27.065 25.609,27.599 27.000,27.599 C31.025,27.599 36.000,25.293 36.000,18.599 ZM13.083,13.411 C14.346,11.920 16.048,11.174 18.187,11.174 C19.823,11.174 21.209,11.371 22.343,11.763 L21.998,18.116 C21.740,23.151 19.780,25.668 16.119,25.668 C14.411,25.668 13.162,25.144 12.372,24.097 C11.583,23.049 11.188,21.484 11.188,19.403 C11.188,16.901 11.820,14.903 13.083,13.411 Z"/>
</svg>
