<svg
 xmlns="http://www.w3.org/2000/svg"
 xmlns:xlink="http://www.w3.org/1999/xlink"
 width="37px" height="37px">
<path fill-rule="evenodd"  fill="rgb(255, 255, 255)"
 d="M33.579,31.630 L5.623,36.533 C3.907,36.834 2.264,35.736 1.952,34.079 L0.259,25.082 C-0.053,23.426 1.085,21.840 2.801,21.539 L30.757,16.635 C32.473,16.334 34.116,17.433 34.428,19.089 L36.121,28.086 C36.433,29.742 35.295,31.329 33.579,31.630 ZM27.217,15.449 L16.108,7.468 C15.646,7.683 15.137,7.811 14.594,7.811 C14.215,7.811 13.857,7.736 13.513,7.628 L5.564,19.247 L2.773,19.737 L11.832,6.497 C11.313,5.872 10.989,5.081 10.989,4.205 C10.989,2.214 12.603,0.600 14.594,0.600 C16.586,0.600 18.200,2.214 18.200,4.205 C18.200,4.928 17.982,5.598 17.616,6.162 L29.733,15.008 L27.217,15.449 Z"/>
</svg>
