<svg
 xmlns="http://www.w3.org/2000/svg"
 xmlns:xlink="http://www.w3.org/1999/xlink"
 width="30px" height="30px">
<path fill-rule="evenodd"  fill="rgb(42, 42, 42)"
 d="M14.800,29.202 C6.859,29.202 0.398,22.741 0.398,14.800 C0.398,6.859 6.859,0.398 14.800,0.398 C22.741,0.398 29.202,6.859 29.202,14.800 C29.202,22.741 22.741,29.202 14.800,29.202 ZM14.800,1.713 C7.583,1.713 1.713,7.583 1.713,14.800 C1.713,22.017 7.583,27.887 14.800,27.887 C22.017,27.887 27.887,22.017 27.887,14.800 C27.887,7.583 22.017,1.713 14.800,1.713 ZM20.457,13.771 C19.605,13.771 18.915,13.080 18.915,12.228 C18.915,11.375 19.605,10.684 20.457,10.684 C21.310,10.684 22.001,11.375 22.001,12.228 C22.001,13.080 21.310,13.771 20.457,13.771 ZM18.826,20.144 C18.040,21.429 16.503,22.227 14.814,22.227 C13.126,22.227 11.590,21.429 10.804,20.144 C10.570,19.764 10.691,19.267 11.071,19.033 C11.453,18.801 11.950,18.921 12.184,19.300 C12.669,20.097 13.703,20.612 14.814,20.612 C15.927,20.612 16.961,20.097 17.447,19.300 C17.680,18.921 18.179,18.801 18.559,19.033 C18.940,19.267 19.060,19.764 18.826,20.144 ZM9.142,13.771 C8.290,13.771 7.599,13.080 7.599,12.228 C7.599,11.375 8.290,10.684 9.142,10.684 C9.994,10.684 10.684,11.375 10.684,12.228 C10.684,13.080 9.994,13.771 9.142,13.771 Z"/>
</svg>
