<svg
 xmlns="http://www.w3.org/2000/svg"
 xmlns:xlink="http://www.w3.org/1999/xlink"
 width="37px" height="37px">
<path fill-rule="evenodd"  fill="rgb(42, 42, 42)"
 d="M18.605,36.600 C8.661,36.600 0.599,28.541 0.599,18.600 C0.599,8.658 8.661,0.600 18.605,0.600 C28.549,0.600 36.611,8.658 36.611,18.600 C36.611,28.541 28.549,36.600 18.605,36.600 ZM23.302,16.252 L19.388,16.252 L19.388,13.904 C19.388,13.200 20.249,12.339 20.953,12.339 L23.302,12.339 L23.302,9.208 L20.366,9.208 C18.135,9.208 16.256,11.086 16.256,13.317 L16.256,16.252 L13.908,16.252 L13.908,19.382 L16.256,19.382 L16.256,27.991 L19.388,27.991 L19.388,19.382 L23.302,19.382 L23.302,16.252 Z"/>
</svg>
