<svg
 xmlns="http://www.w3.org/2000/svg"
 xmlns:xlink="http://www.w3.org/1999/xlink"
 width="31px" height="30px">
<path fill-rule="evenodd"  fill="rgb(42, 42, 42)"
 d="M29.291,10.741 L19.393,21.027 L19.392,21.027 L13.779,26.861 C12.312,28.387 10.360,29.227 8.283,29.227 C6.207,29.227 4.255,28.387 2.786,26.861 L2.685,26.756 C1.218,25.230 0.409,23.202 0.409,21.043 C0.409,18.887 1.218,16.857 2.685,15.332 L16.405,1.071 L17.399,2.106 L3.679,16.364 C1.198,18.945 1.198,23.144 3.679,25.724 L3.780,25.828 C4.984,27.080 6.583,27.768 8.283,27.768 C9.985,27.768 11.584,27.080 12.787,25.828 L18.399,19.995 L18.399,19.995 L20.963,17.329 L26.505,11.569 L26.506,11.570 L28.296,9.709 C29.128,8.846 29.585,7.697 29.585,6.477 C29.585,5.256 29.128,4.107 28.296,3.244 L28.224,3.168 C26.509,1.387 23.719,1.386 22.005,3.168 L7.465,18.278 L6.473,17.245 L21.011,2.136 C23.273,-0.215 26.954,-0.215 29.217,2.136 L29.291,2.212 C30.386,3.352 30.991,4.866 30.991,6.477 C30.991,8.087 30.386,9.603 29.291,10.741 Z"/>
</svg>
