<svg
 xmlns="http://www.w3.org/2000/svg"
 xmlns:xlink="http://www.w3.org/1999/xlink"
 width="30px" height="37px">
<path fill-rule="evenodd"  fill="rgb(42, 42, 42)"
 d="M27.600,33.200 L18.600,33.200 C18.600,35.188 16.988,36.800 15.000,36.800 C13.012,36.800 11.400,35.188 11.400,33.200 L2.400,33.200 C1.406,33.200 0.600,32.394 0.600,31.400 L0.627,26.343 L2.400,24.571 L2.400,17.000 C2.400,11.301 6.208,6.542 11.400,4.985 L11.400,4.400 C11.400,2.411 13.012,0.800 15.000,0.800 C16.988,0.800 18.600,2.411 18.600,4.400 L18.600,4.985 C23.792,6.542 27.600,11.301 27.600,17.000 L27.600,24.571 L29.373,26.343 L29.400,31.400 C29.400,32.394 28.594,33.200 27.600,33.200 ZM15.000,35.000 C15.994,35.000 16.800,34.194 16.800,33.200 L13.200,33.200 C13.200,34.194 14.006,35.000 15.000,35.000 ZM15.000,2.600 C14.006,2.600 13.200,3.406 13.200,4.400 L16.800,4.400 C16.800,3.406 15.994,2.600 15.000,2.600 ZM27.600,27.429 L25.827,25.656 L25.800,17.000 C25.800,11.035 20.964,6.200 15.000,6.200 C9.035,6.200 4.200,11.035 4.200,17.000 L4.173,25.656 L2.400,27.429 L2.400,31.400 L11.400,31.400 L15.000,31.400 L18.600,31.400 L27.600,31.400 L27.600,27.429 Z"/>
</svg>
