<svg
 xmlns="http://www.w3.org/2000/svg"
 xmlns:xlink="http://www.w3.org/1999/xlink"
 width="36px" height="37px">
<path fill-rule="evenodd"  fill="rgb(42, 42, 42)"
 d="M36.000,18.800 C36.000,8.859 27.941,0.800 18.000,0.800 C8.059,0.800 -0.000,8.859 -0.000,18.800 C-0.000,28.741 8.059,36.800 18.000,36.800 C21.627,36.800 24.998,35.717 27.824,33.871 L27.234,32.101 C24.613,33.924 21.434,35.000 18.000,35.000 C9.053,35.000 1.800,27.747 1.800,18.800 C1.800,9.853 9.053,2.600 18.000,2.600 C26.947,2.600 34.200,9.853 34.200,18.800 C34.200,23.975 30.785,26.000 27.000,26.000 C25.837,26.000 25.279,25.486 24.776,24.722 C24.274,23.958 24.023,22.820 24.023,21.306 L24.023,20.651 L24.496,10.523 C22.371,9.927 20.319,9.628 18.338,9.628 C15.552,9.628 13.295,10.563 11.565,12.433 C9.835,14.303 8.970,16.708 8.970,19.647 C8.970,22.179 9.551,24.148 10.714,25.552 C11.877,26.956 13.521,27.658 15.646,27.658 C17.196,27.658 18.553,27.291 19.716,26.556 C20.879,25.821 21.769,24.726 22.386,23.271 L22.472,23.271 C22.601,24.624 23.064,25.694 23.861,26.480 C24.658,27.265 25.610,27.800 27.000,27.800 C31.025,27.800 36.000,25.493 36.000,18.800 ZM13.083,13.612 C14.346,12.120 16.048,11.374 18.187,11.374 C19.823,11.374 21.209,11.571 22.343,11.964 L21.998,18.316 C21.740,23.351 19.780,25.868 16.120,25.868 C14.411,25.868 13.162,25.344 12.373,24.297 C11.583,23.249 11.188,21.685 11.188,19.604 C11.188,17.101 11.820,15.104 13.083,13.612 Z"/>
</svg>
