<svg
 xmlns="http://www.w3.org/2000/svg"
 xmlns:xlink="http://www.w3.org/1999/xlink"
 width="37px" height="37px">
<path fill-rule="evenodd"  fill="rgb(255, 255, 255)"
 d="M35.151,35.740 C32.932,36.178 32.163,36.601 29.900,36.601 C27.637,36.601 26.867,36.178 24.649,35.740 C23.999,35.625 23.589,35.343 23.589,34.752 L23.600,28.623 C23.600,28.058 24.121,27.599 24.765,27.599 L25.400,27.599 L25.400,26.700 C25.400,24.214 27.414,22.200 29.900,22.200 C32.385,22.200 34.400,24.214 34.400,26.700 L34.400,27.599 L34.940,27.599 C35.636,27.599 36.200,28.058 36.200,28.623 L36.211,34.752 C36.211,35.343 35.800,35.625 35.151,35.740 ZM32.600,26.700 C32.600,25.209 31.391,24.000 29.900,24.000 C28.409,24.000 27.200,25.209 27.200,26.700 L27.200,27.599 L32.600,27.599 L32.600,26.700 ZM21.800,20.422 C17.835,20.422 14.620,17.193 14.620,13.210 C14.620,9.227 17.835,5.998 21.800,5.998 C25.765,5.998 28.979,9.227 28.979,13.210 C28.979,17.193 25.765,20.422 21.800,20.422 ZM12.825,13.213 C12.825,13.726 12.878,14.226 12.960,14.715 C12.333,14.895 11.684,15.022 11.000,15.022 C7.035,15.022 3.820,11.793 3.820,7.810 C3.820,3.827 7.035,0.598 11.000,0.598 C14.049,0.598 16.638,2.516 17.679,5.210 C14.797,6.710 12.825,9.727 12.825,13.213 ZM13.563,16.790 C14.183,18.227 15.177,19.453 16.404,20.386 L16.200,20.386 C13.221,20.386 9.858,23.716 9.292,27.600 L2.600,27.600 C1.274,27.600 0.200,26.390 0.200,24.897 L0.200,23.031 C0.208,19.778 3.406,16.790 6.200,16.790 L13.563,16.790 ZM17.000,22.190 L25.512,22.190 C24.432,23.240 23.751,24.678 23.643,26.276 C22.548,26.893 21.800,28.053 21.800,29.400 L21.800,33.000 L13.400,33.000 C12.074,33.000 11.000,31.790 11.000,30.297 L11.000,28.431 C11.008,25.178 14.206,22.190 17.000,22.190 Z"/>
</svg>
