<svg
 xmlns="http://www.w3.org/2000/svg"
 xmlns:xlink="http://www.w3.org/1999/xlink"
 width="21px" height="25px">
<path fill-rule="evenodd"  fill="rgb(42, 42, 42)"
 d="M19.134,22.864 C16.035,23.545 13.860,24.202 10.700,24.202 C7.539,24.202 5.363,23.545 2.265,22.864 C1.357,22.686 0.800,21.374 0.800,20.456 L0.800,10.280 C0.800,9.007 1.780,7.976 2.990,7.976 L4.382,7.976 L4.382,7.407 C4.382,3.758 7.211,0.800 10.700,0.800 C14.189,0.800 17.018,3.758 17.018,7.407 L17.018,7.976 L18.409,7.976 C19.619,7.976 20.599,9.007 20.599,10.280 L20.599,20.456 C20.599,21.374 20.041,22.686 19.134,22.864 ZM15.190,7.650 C15.190,4.855 13.180,2.590 10.700,2.590 C8.220,2.590 6.210,4.855 6.210,7.650 L6.210,7.976 L15.190,7.976 L15.190,7.650 ZM17.820,9.781 L3.643,9.781 C3.063,9.781 2.593,10.314 2.593,10.972 L2.618,20.032 C2.618,20.678 2.957,21.104 3.717,21.239 C6.312,21.755 7.114,22.391 10.690,22.391 C14.164,22.391 15.069,21.755 17.664,21.239 C18.424,21.104 18.763,20.678 18.763,20.032 L18.788,10.972 C18.788,10.314 18.354,9.781 17.820,9.781 ZM11.580,16.854 L11.580,19.499 C11.580,20.096 11.186,20.579 10.700,20.579 C10.214,20.579 9.820,20.096 9.820,19.499 L9.820,16.854 C8.759,16.488 7.992,15.491 7.992,14.306 C7.992,12.812 9.204,11.600 10.700,11.600 C12.195,11.600 13.408,12.812 13.408,14.306 C13.408,15.491 12.641,16.487 11.580,16.854 Z"/>
</svg>
