<svg
 xmlns="http://www.w3.org/2000/svg"
 xmlns:xlink="http://www.w3.org/1999/xlink"
 width="37px" height="37px">
<path fill-rule="evenodd"  fill="rgb(42, 42, 42)"
 d="M18.607,36.600 C8.663,36.600 0.601,28.541 0.601,18.600 C0.601,8.658 8.663,0.600 18.607,0.600 C28.551,0.600 36.613,8.658 36.613,18.600 C36.613,28.541 28.551,36.600 18.607,36.600 ZM26.837,11.879 C26.194,12.143 25.552,12.540 24.653,12.672 C22.726,10.160 17.844,12.143 18.743,15.844 C15.403,15.580 13.348,13.994 11.678,12.143 C10.778,13.729 11.549,16.241 12.705,16.902 C12.192,16.902 11.678,16.770 11.292,16.505 C11.421,18.620 12.448,19.546 13.990,20.075 C13.605,20.075 13.091,20.207 12.577,20.075 C13.091,21.529 14.118,22.454 15.789,22.586 C14.632,23.644 12.448,24.305 10.778,24.040 C12.320,24.965 13.990,25.759 16.302,25.626 C21.955,25.362 25.681,21.132 25.809,15.051 C26.451,14.523 27.094,13.994 27.222,13.333 C26.708,13.597 26.066,13.729 25.424,13.862 C26.066,13.333 26.580,12.804 26.837,11.879 Z"/>
</svg>
