<svg
 xmlns="http://www.w3.org/2000/svg"
 xmlns:xlink="http://www.w3.org/1999/xlink"
 width="36px" height="35px">
<path fill-rule="evenodd"  fill="rgb(0, 127, 224)"
 d="M32.400,25.999 L21.591,25.999 L12.175,34.676 C11.969,34.914 10.389,35.002 9.533,35.002 C8.982,35.002 9.000,34.236 9.000,33.199 L9.000,25.999 L3.600,25.999 C1.611,25.999 -0.000,24.388 -0.000,22.399 L-0.000,4.399 C-0.000,2.411 1.611,0.799 3.600,0.799 L32.400,0.799 C34.388,0.799 35.999,2.411 35.999,4.399 L35.999,22.399 C35.999,24.388 34.388,25.999 32.400,25.999 ZM34.200,4.400 C34.200,3.406 33.394,2.600 32.400,2.600 L3.600,2.600 C2.606,2.600 1.800,3.406 1.800,4.400 L1.800,22.400 C1.800,23.394 2.606,24.200 3.600,24.200 L10.800,24.200 L10.800,33.200 L20.618,24.200 L32.400,24.200 C33.394,24.200 34.200,23.394 34.200,22.400 L34.200,4.400 Z"/>
</svg>
