<svg xmlns="http://www.w3.org/2000/svg" width="28.812" height="36" viewBox="0 0 28.812 36">
  <metadata><?xpacket begin="﻿" id="W5M0MpCehiHzreSzNTczkc9d"?>
<x:xmpmeta xmlns:x="adobe:ns:meta/" x:xmptk="Adobe XMP Core 5.6-c138 79.159824, 2016/09/14-01:09:01        ">
   <rdf:RDF xmlns:rdf="http://www.w3.org/1999/02/22-rdf-syntax-ns#">
      <rdf:Description rdf:about=""/>
   </rdf:RDF>
</x:xmpmeta>
                                                                                                    
                                                                                                    
                                                                                                    
                                                                                                    
                                                                                                    
                                                                                                    
                                                                                                    
                                                                                                    
                                                                                                    
                                                                                                    
                                                                                                    
                                                                                                    
                                                                                                    
                                                                                                    
                                                                                                    
                                                                                                    
                                                                                                    
                                                                                                    
                                                                                                    
                                                                                                    
                           
<?xpacket end="w"?></metadata>
<defs>
    <style>
      .cls-1 {
        fill: #2a2a2a;
        fill-rule: evenodd;
      }
    </style>
  </defs>
  <path id="ico-files" class="cls-1" d="M86.4,936a1.8,1.8,0,0,1-1.8,1.8H59.4a1.8,1.8,0,0,1-1.8-1.8V903.6a1.8,1.8,0,0,1,1.8-1.8l18.909,0.014,8.077,8.076ZM75.6,903.6H59.4V936H84.6V912.6h-9v-9Zm1.8,0,7.2,7.2H77.4v-7.2ZM63,930.6H81v1.8H63v-1.8Zm0-5.4H81V927H63v-1.8Zm0-5.4H81v1.8H63v-1.8Zm0-5.4H81v1.8H63v-1.8Zm0-5.4h9v1.8H63V909Z" transform="translate(-57.594 -901.812)"/>
</svg>
