<svg
 xmlns="http://www.w3.org/2000/svg"
 xmlns:xlink="http://www.w3.org/1999/xlink"
 width="36px" height="37px">
<path fill-rule="evenodd"  fill="rgb(42, 42, 42)"
 d="M21.600,29.400 C18.311,29.400 15.290,28.285 12.865,26.430 L2.709,36.586 L0.014,33.890 L10.170,23.734 C8.315,21.310 7.200,18.288 7.200,15.000 C7.200,7.047 13.647,0.600 21.600,0.600 C29.553,0.600 36.000,7.047 36.000,15.000 C36.000,22.953 29.553,29.400 21.600,29.400 ZM21.600,2.400 C14.641,2.400 9.000,8.041 9.000,15.000 C9.000,21.959 14.641,27.600 21.600,27.600 C28.559,27.600 34.200,21.959 34.200,15.000 C34.200,8.041 28.559,2.400 21.600,2.400 Z"/>
</svg>
