<svg
 xmlns="http://www.w3.org/2000/svg"
 xmlns:xlink="http://www.w3.org/1999/xlink"
 width="6px" height="24px">
<path fill-rule="evenodd"  fill="rgb(255, 255, 255)"
 d="M2.700,14.600 C1.208,14.600 -0.000,13.391 -0.000,11.900 C-0.000,10.408 1.208,9.200 2.700,9.200 C4.191,9.200 5.400,10.408 5.400,11.900 C5.400,13.391 4.191,14.600 2.700,14.600 ZM2.700,5.600 C1.208,5.600 -0.000,4.391 -0.000,2.900 C-0.000,1.408 1.208,0.200 2.700,0.200 C4.191,0.200 5.400,1.408 5.400,2.900 C5.400,4.391 4.191,5.600 2.700,5.600 ZM2.700,18.200 C4.191,18.200 5.400,19.409 5.400,20.900 C5.400,22.391 4.191,23.600 2.700,23.600 C1.208,23.600 -0.000,22.391 -0.000,20.900 C-0.000,19.409 1.208,18.200 2.700,18.200 Z"/>
</svg>
