<svg
 xmlns="http://www.w3.org/2000/svg"
 xmlns:xlink="http://www.w3.org/1999/xlink"
 width="33px" height="36px">
<path fill-rule="evenodd"  fill="rgb(255, 255, 255)"
 d="M28.800,35.999 L3.600,35.999 C1.612,35.999 -0.000,34.386 -0.000,32.395 L-0.000,29.906 C0.012,25.567 4.809,21.581 9.000,21.581 L23.400,21.581 C27.590,21.581 32.388,25.568 32.400,29.907 L32.400,32.395 C32.400,34.386 30.788,35.999 28.800,35.999 ZM16.200,18.005 C11.215,18.005 7.175,13.974 7.175,9.001 C7.175,4.029 11.215,-0.002 16.200,-0.002 C21.184,-0.002 25.224,4.029 25.224,9.001 C25.224,13.974 21.184,18.005 16.200,18.005 Z"/>
</svg>
