<svg
 xmlns="http://www.w3.org/2000/svg"
 xmlns:xlink="http://www.w3.org/1999/xlink"
 width="37px" height="37px">
<path fill-rule="evenodd"  fill="rgb(42, 42, 42)"
 d="M18.605,36.599 C8.661,36.599 0.599,28.541 0.599,18.600 C0.599,8.658 8.661,0.600 18.605,0.600 C28.549,0.600 36.611,8.658 36.611,18.600 C36.611,28.541 28.549,36.599 18.605,36.599 ZM28.199,14.431 C28.199,13.484 27.719,13.199 27.719,13.199 L18.599,7.800 L9.479,13.199 C9.479,13.199 9.000,13.484 9.000,14.431 L9.000,23.905 C9.000,24.951 9.859,25.799 10.919,25.799 L26.279,25.799 C27.340,25.799 28.199,24.951 28.199,23.905 L28.199,14.431 ZM10.599,14.431 L18.599,9.694 L26.599,14.431 L18.599,19.168 L10.599,14.431 Z"/>
</svg>
