<svg
 xmlns="http://www.w3.org/2000/svg"
 xmlns:xlink="http://www.w3.org/1999/xlink"
 width="94px" height="94px">
<path fill-rule="evenodd"  fill="rgb(254, 220, 3)"
 d="M47.380,93.937 C21.666,93.937 0.820,73.055 0.820,47.296 C0.820,21.537 21.666,0.655 47.380,0.655 C73.094,0.655 93.940,21.537 93.940,47.296 C93.940,73.055 73.094,93.937 47.380,93.937 ZM35.748,23.957 L24.081,23.957 L24.081,35.644 L35.748,35.644 L35.748,23.957 ZM35.748,41.453 L24.081,41.453 L24.081,53.140 L35.748,53.140 L35.748,41.453 ZM35.748,58.949 L24.081,58.949 L24.081,70.636 L35.748,70.636 L35.748,58.949 ZM53.213,23.957 L41.547,23.957 L41.547,35.644 L53.213,35.644 L53.213,23.957 ZM53.213,41.453 L41.547,41.453 L41.547,53.140 L53.213,53.140 L53.213,41.453 ZM53.213,58.949 L41.547,58.949 L41.547,70.636 L53.213,70.636 L53.213,58.949 ZM70.679,23.957 L59.012,23.957 L59.012,35.644 L70.679,35.644 L70.679,23.957 ZM70.679,41.453 L59.012,41.453 L59.012,53.140 L70.679,53.140 L70.679,41.453 ZM70.679,58.949 L59.012,58.949 L59.012,70.636 L70.679,70.636 L70.679,58.949 Z"/>
</svg>
