<svg xmlns="http://www.w3.org/2000/svg" width="36" height="36" viewBox="0 0 36 36">
  <metadata><?xpacket begin="﻿" id="W5M0MpCehiHzreSzNTczkc9d"?>
<x:xmpmeta xmlns:x="adobe:ns:meta/" x:xmptk="Adobe XMP Core 5.6-c138 79.159824, 2016/09/14-01:09:01        ">
   <rdf:RDF xmlns:rdf="http://www.w3.org/1999/02/22-rdf-syntax-ns#">
      <rdf:Description rdf:about=""/>
   </rdf:RDF>
</x:xmpmeta>
                                                                                                    
                                                                                                    
                                                                                                    
                                                                                                    
                                                                                                    
                                                                                                    
                                                                                                    
                                                                                                    
                                                                                                    
                                                                                                    
                                                                                                    
                                                                                                    
                                                                                                    
                                                                                                    
                                                                                                    
                                                                                                    
                                                                                                    
                                                                                                    
                                                                                                    
                                                                                                    
                           
<?xpacket end="w"?></metadata>
<defs>
    <style>
      .cls-1 {
        fill: #2a2a2a;
        fill-rule: evenodd;
      }
    </style>
  </defs>
  <path id="ico-mentions" class="cls-1" d="M90,775.8a18.026,18.026,0,1,0-8.176,15.071l-0.59-1.77A16.194,16.194,0,1,1,88.2,775.8c0,5.175-3.415,7.2-7.2,7.2a2.391,2.391,0,0,1-2.224-1.278,6.266,6.266,0,0,1-.754-3.416v-0.655L78.5,767.523a22.774,22.774,0,0,0-6.159-.895,8.8,8.8,0,0,0-6.773,2.8,10.2,10.2,0,0,0-2.595,7.214,9.006,9.006,0,0,0,1.744,5.9,6.044,6.044,0,0,0,4.931,2.106,7.454,7.454,0,0,0,4.07-1.1,6.964,6.964,0,0,0,2.67-3.285h0.086a5.008,5.008,0,0,0,1.389,3.209A4.221,4.221,0,0,0,81,784.8C85.025,784.8,90,782.493,90,775.8Zm-22.917-5.188a6.343,6.343,0,0,1,5.1-2.238,12.785,12.785,0,0,1,4.156.59L76,775.316q-0.388,7.553-5.879,7.552a4.389,4.389,0,0,1-3.747-1.571,7.745,7.745,0,0,1-1.184-4.693A8.964,8.964,0,0,1,67.083,770.612Z" transform="translate(-54 -757.812)"/>
</svg>
