<svg
 xmlns="http://www.w3.org/2000/svg"
 xmlns:xlink="http://www.w3.org/1999/xlink"
 width="37px" height="36px">
<path fill-rule="evenodd"  fill="rgb(42, 42, 42)"
 d="M0.400,36.000 L0.400,28.800 C0.400,23.829 4.429,19.800 9.400,19.800 L12.469,19.800 C9.535,17.871 7.595,14.556 7.595,10.786 C7.595,4.827 12.432,-0.003 18.399,-0.003 C24.366,-0.003 29.203,4.827 29.203,10.786 C29.203,14.556 27.264,17.871 24.329,19.800 L27.400,19.800 C32.370,19.800 36.400,23.829 36.400,28.800 L36.400,36.000 L0.400,36.000 ZM27.408,10.785 C27.408,5.823 23.375,1.800 18.399,1.800 C13.424,1.800 9.390,5.823 9.390,10.785 C9.390,15.748 13.424,19.771 18.399,19.771 C23.375,19.771 27.408,15.748 27.408,10.785 ZM34.600,28.800 C34.600,24.823 31.376,21.600 27.400,21.600 L9.400,21.600 C5.423,21.600 2.200,24.823 2.200,28.800 L2.200,34.200 L34.600,34.200 L34.600,28.800 Z"/>
</svg>
