<svg
 xmlns="http://www.w3.org/2000/svg"
 xmlns:xlink="http://www.w3.org/1999/xlink"
 width="44px" height="48px">
<path fill-rule="evenodd"  fill="rgb(38, 38, 38)"
 d="M43.237,42.470 C43.237,44.029 42.124,44.775 40.363,45.077 C34.351,46.234 27.996,47.349 21.863,47.349 C15.729,47.349 9.374,46.234 3.362,45.077 C1.601,44.775 0.488,44.029 0.488,42.470 L0.516,24.010 C0.516,20.789 3.122,18.177 6.337,18.177 L6.337,16.232 C6.337,7.641 13.288,0.676 21.862,0.676 C30.437,0.676 37.387,7.641 37.387,16.232 L37.387,18.177 C40.603,18.177 43.209,20.789 43.209,24.010 L43.237,42.470 ZM31.566,16.232 C31.566,10.863 27.221,6.510 21.862,6.510 C16.504,6.510 12.159,10.863 12.159,16.232 L12.159,18.177 L31.566,18.177 L31.566,16.232 Z"/>
</svg>
