<svg
 xmlns="http://www.w3.org/2000/svg"
 xmlns:xlink="http://www.w3.org/1999/xlink"
 width="36px" height="30px">
<path fill-rule="evenodd"  fill="rgb(42, 42, 42)"
 d="M34.200,29.200 L1.800,29.200 C0.806,29.200 -0.000,28.394 -0.000,27.400 L-0.000,26.832 L-0.000,24.962 L-0.000,4.638 L-0.000,2.768 L-0.000,2.200 C-0.000,1.206 0.806,0.400 1.800,0.400 L34.200,0.400 C35.194,0.400 36.000,1.206 36.000,2.200 L36.000,2.768 L36.000,4.638 L36.000,24.962 L36.000,26.832 L36.000,27.400 C36.000,28.394 35.194,29.200 34.200,29.200 ZM34.200,2.200 L1.800,2.200 L1.800,3.262 L18.000,15.962 L34.200,3.262 L34.200,2.200 ZM34.200,6.049 L18.447,18.398 L17.553,18.398 L1.800,6.049 L1.800,23.551 L10.666,16.600 L12.444,17.993 L1.800,26.338 L1.800,27.400 L34.200,27.400 L34.200,26.338 L23.556,17.993 L25.333,16.600 L34.200,23.551 L34.200,6.049 Z"/>
</svg>
