<svg
 xmlns="http://www.w3.org/2000/svg"
 xmlns:xlink="http://www.w3.org/1999/xlink"
 width="37px" height="37px">
<path fill-rule="evenodd"  fill="rgb(42, 42, 42)"
 d="M29.890,13.599 C27.728,13.599 25.823,12.510 24.686,10.852 L12.281,17.392 C12.612,18.159 12.799,19.002 12.799,19.889 C12.799,20.624 12.649,21.319 12.419,21.974 L24.523,27.409 C25.632,25.599 27.611,24.379 29.890,24.379 C33.374,24.379 36.199,27.205 36.199,30.689 C36.199,34.174 33.374,36.999 29.890,36.999 C26.405,36.999 23.579,34.174 23.579,30.689 C23.579,30.124 23.678,29.586 23.817,29.065 L11.591,23.576 C10.444,25.159 8.593,26.199 6.490,26.199 C3.005,26.199 0.179,23.374 0.179,19.889 C0.179,16.405 3.005,13.580 6.490,13.580 C8.438,13.580 10.159,14.482 11.316,15.870 L23.915,9.228 C23.715,8.613 23.579,7.970 23.579,7.289 C23.579,3.805 26.405,0.979 29.890,0.979 C33.374,0.979 36.199,3.805 36.199,7.289 C36.199,10.774 33.374,13.599 29.890,13.599 ZM29.923,35.223 C32.408,35.223 34.423,33.208 34.423,30.723 C34.423,28.238 32.408,26.223 29.923,26.223 C27.437,26.223 25.423,28.238 25.423,30.723 C25.423,33.208 27.437,35.223 29.923,35.223 ZM6.523,15.423 C4.037,15.423 2.023,17.438 2.023,19.923 C2.023,22.408 4.037,24.423 6.523,24.423 C9.008,24.423 11.023,22.408 11.023,19.923 C11.023,17.438 9.008,15.423 6.523,15.423 ZM29.923,2.823 C27.437,2.823 25.423,4.838 25.423,7.323 C25.423,9.808 27.437,11.823 29.923,11.823 C32.408,11.823 34.423,9.808 34.423,7.323 C34.423,4.838 32.408,2.823 29.923,2.823 Z"/>
</svg>
