<svg
 xmlns="http://www.w3.org/2000/svg"
 xmlns:xlink="http://www.w3.org/1999/xlink"
 width="37px" height="37px">
<path fill-rule="evenodd"  fill="rgb(42, 42, 42)"
 d="M18.594,36.600 C8.649,36.600 0.588,28.541 0.588,18.599 C0.588,8.658 8.649,0.599 18.594,0.599 C28.538,0.599 36.599,8.658 36.599,18.599 C36.599,28.541 28.538,36.600 18.594,36.600 ZM11.156,26.035 L14.679,26.035 L14.679,15.469 L11.156,15.469 L11.156,26.035 ZM12.917,9.246 C11.743,9.246 10.803,10.185 10.803,11.359 C10.803,12.534 11.743,13.473 12.917,13.473 C14.092,13.473 15.031,12.534 15.031,11.359 C15.031,10.185 14.092,9.246 12.917,9.246 ZM27.598,19.343 C27.598,17.112 25.718,15.234 23.487,15.234 C22.430,15.234 21.138,15.938 20.551,16.878 L20.551,15.469 L17.028,15.469 L17.028,26.035 L20.551,26.035 L20.551,19.813 C20.551,18.873 21.373,18.052 22.313,18.052 C23.252,18.052 24.074,18.873 24.074,19.813 L24.074,26.035 L27.598,26.035 L27.598,19.343 Z"/>
</svg>
